<svg fill="#000000" xmlns="http://www.w3.org/2000/svg"  viewBox="0 0 16 16" width="48px" height="48px"><path d="M 8.355469 2 L 6.640625 2.015625 C 6.292969 2.015625 6 2.3125 6 2.660156 C 6 3.875 5.414063 4.484375 4.789063 4.882813 C 4.472656 5.078125 4.148438 5.207031 3.90625 5.28125 C 3.785156 5.320313 3.683594 5.34375 3.617188 5.359375 C 3.582031 5.367188 3.550781 5.371094 3.53125 5.375 C 3.523438 5.375 3.515625 5.378906 3.507813 5.382813 C 3.507813 5.382813 3.503906 5.382813 3.5 5.382813 C 3.496094 5.382813 3.492188 5.382813 3.484375 5.382813 C 3.476563 5.386719 3.425781 5.402344 3.425781 5.402344 L 3.421875 5.40625 L 3.414063 5.40625 C 3.15625 5.503906 3 5.746094 3 6.007813 L 3 7.359375 C 3 7.707031 3.292969 8 3.640625 8 L 5 8 L 5 10.386719 C 5 10.585938 4.996094 11.445313 5.390625 12.296875 C 5.789063 13.152344 6.691406 14 8.203125 14 C 9.308594 14 10.171875 13.792969 10.765625 13.578125 C 11.066406 13.46875 11.296875 13.355469 11.460938 13.265625 C 11.542969 13.222656 11.605469 13.183594 11.65625 13.15625 C 11.703125 13.125 11.691406 13.144531 11.777344 13.070313 L 11.78125 13.0625 L 11.785156 13.058594 C 11.921875 12.9375 12 12.757813 12 12.578125 L 12 11.082031 C 12 10.851563 11.867188 10.636719 11.675781 10.523438 L 11.671875 10.519531 L 11.664063 10.515625 C 11.464844 10.410156 11.210938 10.410156 11.007813 10.542969 L 11.058594 10.515625 C 11.046875 10.519531 10.308594 11 9.625 11 C 9.238281 11 9.167969 10.886719 9.089844 10.757813 C 9.050781 10.695313 9.027344 10.621094 9.015625 10.5625 C 9 10.503906 9 10.40625 9 10.5 L 9 8 L 10.355469 8 C 10.703125 8 11 7.710938 11 7.359375 L 11 5.660156 C 11 5.308594 10.703125 5.015625 10.355469 5.015625 L 9 5.003906 L 9 2.640625 C 9 2.292969 8.707031 2 8.359375 2 Z M 8 3.003906 L 8 5.996094 L 10 6.015625 L 10 7 L 8 7 L 8 10.5 C 8 10.617188 8.007813 10.652344 8.039063 10.785156 C 8.066406 10.921875 8.125 11.09375 8.234375 11.277344 C 8.453125 11.636719 8.941406 12 9.625 12 C 10.417969 12 10.710938 11.738281 11 11.566406 L 11 12.378906 C 10.992188 12.382813 10.992188 12.382813 10.984375 12.390625 C 10.859375 12.457031 10.675781 12.546875 10.425781 12.636719 C 9.929688 12.816406 9.183594 13 8.203125 13 C 7.03125 13 6.582031 12.484375 6.296875 11.875 C 6.015625 11.269531 6 10.570313 6 10.386719 L 6 7 L 4 7 L 4 6.289063 C 4.066406 6.273438 4.121094 6.261719 4.203125 6.234375 C 4.507813 6.140625 4.910156 5.984375 5.320313 5.726563 C 6.066406 5.257813 6.765625 4.335938 6.902344 3.015625 Z"/></svg>